<svg xmlns="http://www.w3.org/2000/svg" width="900" height="1600" viewBox="0 0 900 1600" role="img" aria-label="Silver luxury sedan">
  <defs>
    <linearGradient id="sky" x1="0" x2="0" y1="0" y2="1">
      <stop offset="0" stop-color="#c8d2df"/>
      <stop offset="0.48" stop-color="#6f7d8d"/>
      <stop offset="1" stop-color="#15171c"/>
    </linearGradient>
    <linearGradient id="paint" x1="0" x2="1">
      <stop offset="0" stop-color="#d8dde4"/>
      <stop offset="0.45" stop-color="#6b7480"/>
      <stop offset="1" stop-color="#f0f2f5"/>
    </linearGradient>
    <filter id="shadow" x="-20%" y="-40%" width="140%" height="180%">
      <feDropShadow dx="0" dy="28" stdDeviation="20" flood-color="#000" flood-opacity="0.5"/>
    </filter>
  </defs>
  <rect width="900" height="1600" fill="url(#sky)"/>
  <rect y="850" width="900" height="750" fill="#17191f"/>
  <path d="M0 780 C200 710 340 735 480 685 C630 632 740 650 900 590 L900 920 L0 920 Z" fill="#384354" opacity="0.42"/>
  <g opacity="0.16">
    <path d="M72 1145 H828" stroke="#fff" stroke-width="10"/>
    <path d="M-120 1325 H1040" stroke="#fff" stroke-width="8"/>
  </g>
  <g transform="translate(78 770)" filter="url(#shadow)">
    <path d="M58 306 C97 205 205 146 360 134 L516 125 C661 117 754 185 813 298 L840 305 C862 311 878 331 878 354 L878 408 C878 435 856 457 829 457 L78 457 C50 457 28 435 28 407 L28 360 C28 333 40 314 58 306 Z" fill="url(#paint)"/>
    <path d="M238 160 L397 146 C455 142 505 172 542 237 L166 260 C184 203 207 172 238 160 Z" fill="#e5f7ff" opacity="0.7"/>
    <path d="M557 148 C617 151 679 188 723 257 L564 238 C557 205 554 175 557 148 Z" fill="#e5f7ff" opacity="0.58"/>
    <path d="M75 317 L190 284 L704 284 L823 320 L826 361 L75 361 Z" fill="#ffffff" opacity="0.32"/>
    <circle cx="212" cy="446" r="75" fill="#111217"/>
    <circle cx="212" cy="446" r="42" fill="#d8dce2"/>
    <circle cx="688" cy="446" r="75" fill="#111217"/>
    <circle cx="688" cy="446" r="42" fill="#d8dce2"/>
    <rect x="52" y="330" width="88" height="22" rx="11" fill="#fff5cc"/>
    <rect x="755" y="328" width="82" height="22" rx="11" fill="#dc4656"/>
  </g>
</svg>
